<svg width="66" height="66" viewBox="0 0 66 66" fill="none" xmlns="http://www.w3.org/2000/svg">
<path d="M61.875 9.60303L59.235 10.3765L11.9872 24.75H4.125V41.25H11.9893L16.0483 42.4752L15.9864 42.667V42.733C14.6623 47.089 17.1146 51.9317 21.6583 53.3012C21.6789 53.3074 21.7037 53.295 21.7202 53.3012C26.0989 54.6315 30.9457 52.2081 32.2926 47.6293L32.3544 47.4355L59.235 55.6236L61.875 56.395V9.60303ZM57.75 15.147V50.853L12.9525 37.1869L12.6988 37.125H8.25V28.875H12.6968L12.9546 28.8132L57.75 15.145V15.147ZM19.9794 43.6982L28.4233 46.2145L28.3614 46.4063V46.4682C27.6519 48.8813 25.0903 50.061 22.8834 49.3701C20.4703 48.6627 19.2287 46.165 19.9176 43.956V43.8942L19.9794 43.6982V43.6982Z" fill="black"/>
</svg>
