<svg width="57" height="57" viewBox="0 0 57 57" fill="none" xmlns="http://www.w3.org/2000/svg">
<path d="M39.188 16.0312H46.484C46.9253 16.0317 47.3507 16.1959 47.6778 16.4921C48.0049 16.7883 48.2104 17.1953 48.2546 17.6344L49.3411 28.5H45.7572L44.8666 19.5938H39.188V24.9375C39.188 25.4099 39.0003 25.863 38.6663 26.197C38.3322 26.5311 37.8792 26.7188 37.4067 26.7188C36.9343 26.7188 36.4813 26.5311 36.1472 26.197C35.8132 25.863 35.6255 25.4099 35.6255 24.9375V19.5938H21.3755V24.9375C21.3755 25.4099 21.1878 25.863 20.8538 26.197C20.5197 26.5311 20.0667 26.7188 19.5942 26.7188C19.1218 26.7188 18.6688 26.5311 18.3347 26.197C18.0007 25.863 17.813 25.4099 17.813 24.9375V19.5938H12.1308L9.2808 48.0938H28.5005V51.6562H7.31074C7.06195 51.656 6.81597 51.6036 6.58865 51.5025C6.36133 51.4014 6.1577 51.2538 5.9909 51.0692C5.8241 50.8847 5.69781 50.6672 5.62018 50.4308C5.54255 50.1944 5.5153 49.9444 5.54018 49.6969L8.74643 17.6344C8.79056 17.1953 8.99609 16.7883 9.3232 16.4921C9.65031 16.1959 10.0757 16.0317 10.517 16.0312H17.813V14.7879C17.813 8.61056 22.5725 3.5625 28.5005 3.5625C34.4285 3.5625 39.188 8.61056 39.188 14.7879V16.0348V16.0312ZM35.6255 16.0312V14.7879C35.6255 10.5343 32.4121 7.125 28.5005 7.125C24.5889 7.125 21.3755 10.5343 21.3755 14.7879V16.0348H35.6255V16.0312ZM46.8367 42.9638L42.7505 38.8811V51.6562C42.7505 52.1287 42.5628 52.5817 42.2288 52.9158C41.8947 53.2498 41.4417 53.4375 40.9692 53.4375C40.4968 53.4375 40.0438 53.2498 39.7097 52.9158C39.3757 52.5817 39.188 52.1287 39.188 51.6562V38.8811L35.1054 42.9638C34.941 43.1339 34.7445 43.2696 34.5272 43.3629C34.3099 43.4563 34.0761 43.5054 33.8396 43.5075C33.6031 43.5095 33.3685 43.4645 33.1496 43.3749C32.9307 43.2853 32.7318 43.1531 32.5646 42.9858C32.3974 42.8186 32.2651 42.6197 32.1755 42.4008C32.086 42.1819 32.0409 41.9473 32.043 41.7108C32.045 41.4743 32.0941 41.2406 32.1875 41.0233C32.2808 40.8059 32.4166 40.6094 32.5867 40.4451L39.7117 33.3201C40.0457 32.9861 40.4987 32.7985 40.971 32.7985C41.4433 32.7985 41.8963 32.9861 42.2304 33.3201L49.3554 40.4451C49.5255 40.6094 49.6612 40.8059 49.7545 41.0233C49.8479 41.2406 49.897 41.4743 49.8991 41.7108C49.9011 41.9473 49.8561 42.1819 49.7665 42.4008C49.677 42.6197 49.5447 42.8186 49.3774 42.9858C49.2102 43.1531 49.0113 43.2853 48.7924 43.3749C48.5735 43.4645 48.3389 43.5095 48.1024 43.5075C47.8659 43.5054 47.6322 43.4563 47.4149 43.3629C47.1975 43.2696 47.001 43.1339 46.8367 42.9638Z" fill="black"/>
</svg>
