<svg width="52" height="52" viewBox="0 0 52 52" fill="none" xmlns="http://www.w3.org/2000/svg">
<path d="M25.9997 4.33337C14.0397 4.33337 4.33301 14.04 4.33301 26C4.33301 37.96 14.0397 47.6667 25.9997 47.6667C37.9597 47.6667 47.6663 37.96 47.6663 26C47.6663 14.04 37.9597 4.33337 25.9997 4.33337ZM25.9997 43.3334C16.4447 43.3334 8.66634 35.555 8.66634 26C8.66634 16.445 16.4447 8.66671 25.9997 8.66671C35.5547 8.66671 43.333 16.445 43.333 26C43.333 35.555 35.5547 43.3334 25.9997 43.3334ZM27.928 24.05C24.0713 22.7717 22.208 21.97 22.208 19.9334C22.208 17.7234 24.613 16.9217 26.1297 16.9217C28.968 16.9217 30.008 19.0667 30.2463 19.825L33.6697 18.3734C33.3447 17.42 31.893 14.235 27.9063 13.5417V10.8334H24.1147V13.5634C18.4813 14.7767 18.438 19.7384 18.438 19.9767C18.438 24.895 23.313 26.2817 25.6963 27.1484C29.1197 28.3617 30.6363 29.4667 30.6363 31.5467C30.6363 33.995 28.3613 35.035 26.3463 35.035C22.403 35.035 21.2763 30.9834 21.1463 30.5067L17.5497 31.9584C18.9147 36.7034 22.4897 37.9817 24.093 38.3717V41.1667H27.8847V38.48C29.0113 38.285 34.428 37.2017 34.428 31.5034C34.4497 28.4917 33.128 25.8484 27.928 24.05Z" fill="black"/>
</svg>
