<svg width="55" height="55" viewBox="0 0 55 55" fill="none" xmlns="http://www.w3.org/2000/svg">
<path d="M48.1247 48.125H6.87467C6.26689 48.125 5.68399 47.8836 5.25422 47.4538C4.82445 47.024 4.58301 46.4411 4.58301 45.8333V28.616C4.58297 28.2886 4.65311 27.9649 4.7887 27.6669C4.92429 27.3688 5.12219 27.1033 5.36905 26.8881L13.7497 19.58V9.16667C13.7497 8.55888 13.9911 7.97598 14.4209 7.54621C14.8507 7.11644 15.4336 6.875 16.0413 6.875H48.1247C48.7325 6.875 49.3154 7.11644 49.7451 7.54621C50.1749 7.97598 50.4163 8.55888 50.4163 9.16667V45.8333C50.4163 46.4411 50.1749 47.024 49.7451 47.4538C49.3154 47.8836 48.7325 48.125 48.1247 48.125ZM20.6247 43.5417H27.4997V29.6588L18.333 21.6654L9.16634 29.6588V43.5417H16.0413V34.375H20.6247V43.5417ZM32.083 43.5417H45.833V11.4583H18.333V16.3327C18.8693 16.3327 19.4078 16.5206 19.8386 16.8988L31.297 26.8881C31.5438 27.1033 31.7417 27.3688 31.8773 27.6669C32.0129 27.9649 32.083 28.2886 32.083 28.616V43.5417ZM36.6663 25.2083H41.2497V29.7917H36.6663V25.2083ZM36.6663 34.375H41.2497V38.9583H36.6663V34.375ZM36.6663 16.0417H41.2497V20.625H36.6663V16.0417ZM27.4997 16.0417H32.083V20.625H27.4997V16.0417Z" fill="black"/>
</svg>
